<svg id="Layer_1" data-name="Layer 1" xmlns="http://www.w3.org/2000/svg" viewBox="0 0 68.32 70.07"><defs><style>.cls-1{fill:#0660b2;}</style></defs><title>PD_icon</title><path class="cls-1" d="M67.58,41.27a5.3,5.3,0,0,0-3.27-2.45L39,32.36a5.32,5.32,0,0,0-2.21-.09l-18.11,3a5.34,5.34,0,0,0,1.76,10.53l.74-.12a1.49,1.49,0,0,0,.28.26L34,54.43l-.57,6.78H24.63c-4.11,0-6,4.47-6.45,7.11a1.5,1.5,0,0,0,1.48,1.76H55a1.5,1.5,0,0,0,1.48-1.76C56,65.67,54.12,61.2,50,61.2H48.32l-.69-8.67a1.5,1.5,0,0,0-1.5-1.38H43.81l-7.51-8L37.44,43l24.22,6.18a5.16,5.16,0,0,0,1.32.17,5.34,5.34,0,0,0,4.59-8.06ZM53,67.07H21.66c.46-1.16,1.25-2.52,2.49-2.8H39.67a1,1,0,0,0,0-2h-3.3l.67-8h7.72l.67,8.51a1.5,1.5,0,0,0,1.5,1.38H50C51.52,64.2,52.45,65.76,53,67.07ZM40.78,52.31H36.25L25.4,45l7.34-1.23Zm24.47-7.73A2.34,2.34,0,0,1,63,46.33a2.22,2.22,0,0,1-.58-.07L37.57,39.92,20,42.88a2.4,2.4,0,0,1-.39,0,2.34,2.34,0,0,1-.39-4.64l18.11-3a2.37,2.37,0,0,1,.39,0,2.35,2.35,0,0,1,.57.07l25.32,6.46A2.33,2.33,0,0,1,65.25,44.57Z"/><path class="cls-1" d="M18.12,30.58A5.3,5.3,0,0,0,18,26.49L11.11,11.8a5.25,5.25,0,0,0-1.65-2,5.28,5.28,0,0,0,1.22-3.36V5.3A5.34,5.34,0,0,0,0,5.34V6.46a5.28,5.28,0,0,0,2.14,4.22,5.24,5.24,0,0,0-.74,5.6L8.27,31a5.34,5.34,0,0,0,7.06,2.61A5.29,5.29,0,0,0,18.12,30.58ZM5.34,3A2.34,2.34,0,0,1,7.67,5.34V6.43A2.34,2.34,0,0,1,3,6.43V5.34A2.34,2.34,0,0,1,5.34,3Zm8.75,27.84A2.34,2.34,0,0,1,11,29.69L4.14,15a2.34,2.34,0,1,1,4.25-2l6.85,14.67A2.33,2.33,0,0,1,14.09,30.84Z"/></svg>