<svg id="Layer_1" data-name="Layer 1" xmlns="http://www.w3.org/2000/svg" viewBox="0 0 54.73 70.59"><defs><style>.cls-1{fill:#0660b2;}</style></defs><title>PD_icon</title><path class="cls-1" d="M51.12,3.43c-2-2.28-5-3.43-8.68-3.43A28.41,28.41,0,0,0,35.2,1.09a28.82,28.82,0,0,1-7.84,1.19,28.81,28.81,0,0,1-7.83-1.19A28.41,28.41,0,0,0,12.29,0C8.57,0,5.65,1.15,3.61,3.43.4,7-.65,13.34.38,22.78,3.92,54.95,9.56,70.59,17.64,70.59a6.5,6.5,0,0,0,4.91-2.17c1.29-1.57,1.68-3.75,1.15-6.49-1.21-6.24-2.57-19.17,1-23.47a3.48,3.48,0,0,1,5.42,0c3.55,4.3,2.19,17.23,1,23.47-.53,2.74-.14,4.92,1.15,6.48a6.5,6.5,0,0,0,4.91,2.17c8.08,0,13.72-15.64,17.25-47.81C55.39,13.34,54.33,7,51.12,3.43Zm.24,19C46.9,63.19,39.9,67.59,37.1,67.59a3.43,3.43,0,0,1-2.59-1.08c-.7-.84-.87-2.19-.52-4,.39-2,3.63-19.6-1.6-26a6.48,6.48,0,0,0-10,0c-5.23,6.34-2,24-1.6,26,.35,1.82.18,3.16-.52,4a3.43,3.43,0,0,1-2.59,1.08c-2.8,0-9.8-4.4-14.27-45.13C2.44,14,3.28,8.3,5.85,5.43,7.29,3.82,9.4,3,12.22,3A15.34,15.34,0,0,0,12.06,5a1,1,0,0,0,1,1h0a1,1,0,0,0,1-1,13.47,13.47,0,0,1,.17-1.87A30.32,30.32,0,0,1,18.76,4a32,32,0,0,0,8.6,1.29A32,32,0,0,0,36,4a30.31,30.31,0,0,1,4.64-.89c0,.25.08.5.1.76s.06.73.07,1.09a1,1,0,0,0,1,1h0a1,1,0,0,0,1-1c0-.41,0-.83-.08-1.25,0-.22-.06-.44-.09-.66,2.77,0,4.83.82,6.27,2.43C51.46,8.3,52.29,14,51.37,22.45Z"/><path class="cls-1" d="M28.41,18.55a13.4,13.4,0,0,1-1.95,0,1,1,0,0,0-1.07.93,1,1,0,0,0,.93,1.07q.54,0,1.08,0c.38,0,.77,0,1.16,0a1,1,0,1,0-.15-2Z"/><path class="cls-1" d="M15.1,10.41a13.34,13.34,0,0,1-.62-1.85,1,1,0,1,0-1.94.5,15.3,15.3,0,0,0,.71,2.12,1,1,0,0,0,.92.61,1,1,0,0,0,.39-.08A1,1,0,0,0,15.1,10.41Z"/><path class="cls-1" d="M16.93,13.5a1,1,0,1,0-1.57,1.24,15.5,15.5,0,0,0,1.51,1.65,1,1,0,0,0,1.37-1.46A13.24,13.24,0,0,1,16.93,13.5Z"/><path class="cls-1" d="M22.94,17.82A13.21,13.21,0,0,1,21.16,17a1,1,0,0,0-.94,1.77,15.19,15.19,0,0,0,2.05.91,1,1,0,1,0,.67-1.88Z"/><path class="cls-1" d="M41.59,7.81a1,1,0,0,0-1.22.72,13.29,13.29,0,0,1-.62,1.85,1,1,0,0,0,1.85.77A15.32,15.32,0,0,0,42.31,9,1,1,0,0,0,41.59,7.81Z"/><path class="cls-1" d="M33.71,17a13.45,13.45,0,0,1-1.78.79,1,1,0,1,0,.67,1.88,15.25,15.25,0,0,0,2-.91A1,1,0,1,0,33.71,17Z"/><path class="cls-1" d="M37.93,13.48a13.46,13.46,0,0,1-1.31,1.44A1,1,0,0,0,38,16.37a15.6,15.6,0,0,0,1.51-1.66,1,1,0,1,0-1.57-1.23Z"/></svg>