<svg id="Layer_1" data-name="Layer 1" xmlns="http://www.w3.org/2000/svg" viewBox="0 0 67.07 70.27"><defs><style>.cls-1{fill:#0660b2;}</style></defs><title>PD_icon</title><path class="cls-1" d="M66.2,10.36,60.82,5A3,3,0,0,0,58.7,4.1h0A3,3,0,0,0,56.58,5L55,6.57,51.53,3.12a2.3,2.3,0,0,0,.14-.78,2.37,2.37,0,1,0-1.56,2.2L53.57,8,52.11,9.45a3,3,0,0,0-.76,3L40.21,23.53a3,3,0,0,0-.83-.12h0a3,3,0,0,0-2.12.88L19.43,42.13a3,3,0,0,0-.76,3L.88,62.87a3,3,0,0,0,0,4.24l2.28,2.28a3,3,0,0,0,4.24,0L25.19,51.61a3,3,0,0,0,.83.12h0a3,3,0,0,0,2.12-.88L46,33a3,3,0,0,0,.76-3L57.61,19.19a3,3,0,0,0,4.12-.12L66.2,14.6A3,3,0,0,0,66.2,10.36ZM5.28,67.27,3,65,21.28,46.72,23.56,49ZM26.07,48.68,21.6,44.2l1.74-1.75,2.3,2.3a1,1,0,0,0,1.41-1.42L24.76,41l1.81-1.82,2.29,2.3a1,1,0,1,0,1.42-1.41L28,37.81,29.8,36l2.29,2.3a1,1,0,1,0,1.41-1.41l-2.29-2.3L33,32.77l2.3,2.3a1,1,0,1,0,1.41-1.41l-2.3-2.3,1.81-1.82,2.3,2.3A1,1,0,0,0,40,30.42l-2.3-2.3,1.67-1.67,4.48,4.48ZM44.13,28.42l-2.28-2.28L53.93,14.07l2.28,2.28ZM59.62,16.93l-5.38-5.38L58.7,7.1l5.37,5.38Z"/></svg>